inDegrees=no
num_controls=7
num_derivatives=13
num_iterations=81
num_multipliers=7
num_parameters=0
num_slacks=7
num_states=26
objective=0.510121
objective_accelerations=0.002233
objective_balance=0.002477
objective_effort=0.004186
objective_height=0.469317
objective_ligament=0.031908
solver_duration=1202.742479
status=Solve_Succeeded
success=true
DataType=double
version=3
OpenSimVersion=4.5
endheader
time	/jointset/ground_pelvis/pelvis_tilt/value	/jointset/ground_pelvis/pelvis_tx/value	/jointset/ground_pelvis/pelvis_ty/value	/jointset/hip_l/hip_flexion_l/value	/jointset/hip_l/hip_adduction_l/value	/jointset/hip_l/hip_rotation_l/value	/jointset/back/lumbar_extension/value	/jointset/patellofemoral_l/patellar_flexion_l/value	/jointset/knee_l/knee_flexion_l/value	/jointset/knee_l/knee_adduction_l/value	/jointset/knee_l/knee_rotation_l/value	/jointset/ankle_l/ankle_angle_l/value	/jointset/subtalar_l/subtalar_angle_l/value	/jointset/ground_pelvis/pelvis_tilt/speed	/jointset/ground_pelvis/pelvis_tx/speed	/jointset/ground_pelvis/pelvis_ty/speed	/jointset/hip_l/hip_flexion_l/speed	/jointset/hip_l/hip_adduction_l/speed	/jointset/hip_l/hip_rotation_l/speed	/jointset/back/lumbar_extension/speed	/jointset/patellofemoral_l/patellar_flexion_l/speed	/jointset/knee_l/knee_flexion_l/speed	/jointset/knee_l/knee_adduction_l/speed	/jointset/knee_l/knee_rotation_l/speed	/jointset/ankle_l/ankle_angle_l/speed	/jointset/subtalar_l/subtalar_angle_l/speed	/forceset/tau_hip_flexion_l	/forceset/tau_hip_adduction_l	/forceset/tau_hip_rotation_l	/forceset/tau_knee_flexion_l	/forceset/tau_ankle_angle_l	/forceset/tau_subtalar_angle_l	/forceset/tau_lumbar_extension	lambda_cid13_p0	lambda_cid13_p1	lambda_cid13_p2	lambda_cid13_p3	lambda_cid13_p4	lambda_cid13_p5	lambda_cid14_p0	/jointset/ground_pelvis/pelvis_tilt/accel	/jointset/ground_pelvis/pelvis_tx/accel	/jointset/ground_pelvis/pelvis_ty/accel	/jointset/hip_l/hip_flexion_l/accel	/jointset/hip_l/hip_adduction_l/accel	/jointset/hip_l/hip_rotation_l/accel	/jointset/back/lumbar_extension/accel	/jointset/patellofemoral_l/patellar_flexion_l/accel	/jointset/knee_l/knee_flexion_l/accel	/jointset/knee_l/knee_adduction_l/accel	/jointset/knee_l/knee_rotation_l/accel	/jointset/ankle_l/ankle_angle_l/accel	/jointset/subtalar_l/subtalar_angle_l/accel	gamma_cid13_p0	gamma_cid13_p1	gamma_cid13_p2	gamma_cid13_p3	gamma_cid13_p4	gamma_cid13_p5	gamma_cid14_p0
1	-0.0965540518470082	0.1138178609982562	0.8937997369731919	0.2020996210001223	-0.3224266237716403	-0.4502189471370216	-0.1180676488018987	0.06934219229625602	0.06934219229617045	-0.169686064893777	-0.07736566650433663	-0.01194866059159051	0.03390740286671266	-0.04916809596039966	0.02839230384500334	-0.002487010845237789	0.01219367950201244	0.002040936267399225	0.0006086808258357957	0.0814702462914962	-0.009634185046122078	-0.009634185046119077	0.00176706615838769	0.009753146629902204	0.02802199059360915	0.01847401997703899	-0.01818963875360867	0.06336088695610728	0.0007978466752464826	-0.05815371287228128	0.006295711021243996	-0.04829723491001948	0.05326325844983552	-35.36622795274163	21.35096637142558	2.904445504181473	9.749837828212614	-546.4836683925516	-28.02070752094043	-38.88181536373422	0.1459168218442578	-0.1314839654913101	0.008031412933371137	0.006450591659442149	0.01044846543426153	0.03770427493461269	0.1555375454676801	-0.01933566936615886	-0.01933566936615897	0.01028474634816893	0.01705157291605656	-0.1626955403247258	-0.0820622695646082	4.322860379257212e-11	1.490446756125168e-10	-1.062843289149581e-10	1.622073718241669e-11	-1.134863106919517e-11	2.206863915728425e-10	2.387791886129624e-11
1.01	-0.09703841303420867	0.1140952045561232	0.8937752715519433	0.2022218721212484	-0.3224056932152245	-0.4502109563174576	-0.1172452205342876	0.06924490006706671	0.06924490006710428	-0.1696678735536818	-0.07726727251276137	-0.01167657075922825	0.03408803962726092	-0.04770266052923594	0.02707578573880695	-0.002405773973573492	0.01225584695716326	0.002145193600922903	0.0009902013622594377	0.08301206287806953	-0.009824243303849721	-0.009824243303847133	0.001871263113542563	0.009926040846002484	0.02639534653454575	0.01765284344272	-0.01815257439371991	0.06346160285937223	0.0008330314498455501	-0.05796756093510936	0.005966384424441957	-0.04834367892764251	0.05314514189728748	-35.47266192136011	21.38731070167023	2.901463563756375	9.756037425471259	-546.4828165023832	-27.98914377124859	-38.87763129001426	0.1470790467766436	-0.131829020413522	0.008214716020455266	0.005995158885005744	0.01041715991502014	0.03848370507054685	0.1530020622720931	-0.0188382879536145	-0.01883828795391018	0.01049636641485776	0.01746669101722137	-0.1627432360687691	-0.08221866073079649	5.018981546872703e-12	1.557538167515459e-10	-1.028817797869262e-10	4.975459454607849e-11	-1.129965901890524e-10	1.744194644530693e-10	2.166944645494597e-11
1.02	-0.09750807543846025	0.1143593642754801	0.8937516274777642	0.2023447239840788	-0.3223837195269396	-0.4501991287401108	-0.1164074744314361	0.06914570777865518	0.06914570777856931	-0.1696486384049273	-0.07716713790947599	-0.01142076624693701	0.03426044995939654	-0.0462283393771778	0.02575553614298607	-0.002322741431342534	0.01231382786993491	0.002249562638583034	0.00137603238163111	0.08453381334549959	-0.01001419692067229	-0.01001419692067011	0.001975827921338823	0.0101012688643908	0.0247649265806389	0.01682873429378545	-0.01811551003559315	0.06356231876256439	0.0008682162211050029	-0.057781408998129	0.005637057827456448	-0.04839012294541693	0.05302702534344227	-35.57951275671625	21.42361800671954	2.898613189281125	9.770386898148828	-546.4845790351224	-27.95824935895117	-38.87336536808006	0.1476939660227395	-0.1322302634157906	0.008390547046680441	0.005613283183400192	0.01047080626148492	0.03856637152439001	0.1515243216388526	-0.0193147411853539	-0.01931474118535405	0.01035831687622884	0.01751833337397312	-0.1634507192930275	-0.08264879248758031	3.41220032289112e-11	1.397929087727141e-10	-7.901266300073057e-11	1.561673381444861e-11	-4.555001521220441e-11	1.914783708030802e-10	1.991880412205472e-11
1.03	-0.09796295521955338	0.1146103062973698	0.8937288223592431	0.2024681337126851	-0.322360701361092	-0.4501834237497896	-0.1155546110186319	0.06904461323752459	0.069044613237563	-0.1696283567822713	-0.07706523977818655	-0.01118128259745288	0.03442460623218856	-0.04474654623489254	0.0244325907122102	-0.002238010125191276	0.01236719439394468	0.002354114424899893	0.001765348344168755	0.08603542460310186	-0.0102050539714035	-0.01020505397140135	0.002080435380659268	0.01027862992982781	0.02313137659258788	0.01600219405011717	-0.01803611162701945	0.06362176775194373	0.0008925948604081547	-0.05767765342945894	0.0054240614470529	-0.04844047459945489	0.05287658540753588	-35.6490565891319	21.45754455536938	2.893338923051774	9.76319246262835	-546.4831326911051	-27.9292958439951	-38.86901730681929	0.1485825776216957	-0.1323683144586626	0.008555249618506539	0.005059818994663545	0.01045395670836149	0.03917161654192799	0.1489628356091514	-0.01902259479989621	-0.01902259480029108	0.01050278373257107	0.01788585342623527	-0.1633711328919705	-0.08270558666032005	6.391188862449843e-11	1.236006737620672e-10	-5.493470368741068e-11	-1.921165465284789e-11	2.362201419420281e-11	2.09183459127273e-10	1.817283352460692e-11
1.04	-0.09840298495133594	0.1148480105386393	0.8937068727192322	0.2025920494028851	-0.3223366363589837	-0.4501638141182587	-0.1146868348316995	0.06894159984458038	0.06894159984448255	-0.1696070309206849	-0.07696155986345332	-0.01095814724672328	0.03458048731327702	-0.04325832952108655	0.02310798001894934	-0.002151645729344155	0.01241502019726137	0.002458929886891785	0.002156960623628382	0.08751636817229523	-0.01039796733344007	-0.01039796733343796	0.002184675770900233	0.01045762540703945	0.02149526683132191	0.01517369595229157	-0.0179567132191403	0.06368121674118739	0.0009169734955768293	-0.05757389786038329	0.005211065066623612	-0.048490826253614	0.05272614547113003	-35.71901488664783	21.49144079991015	2.888186993874764	9.764184312438843	-546.4842589643786	-27.90100020863786	-38.8645860119494	0.1489786803265669	-0.1325633159124665	0.008717164985836211	0.004505139044623616	0.01052354139644576	0.03902563490886005	0.1473907839569225	-0.019726003446613	-0.01972600344661397	0.0102849030601596	0.0178452157290871	-0.1639626739357373	-0.08304036331894225	6.193897387611532e-11	1.316481005150117e-10	-8.132387396282216e-11	-1.688518033442667e-12	1.757940673092714e-11	2.205286585838736e-10	2.363569586204691e-11
1.05	-0.09882811058072707	0.1150724615886797	0.8936857933124863	0.2027164300640721	-0.322311525410504	-0.4501402786493152	-0.1138043564384351	0.06883665856354219	0.06883665856358433	-0.1695846670074593	-0.07685608745924011	-0.0107513798763878	0.03472807323124807	-0.04176669373118487	0.02178207256141013	-0.002064118702614779	0.01246158779870484	0.002562944121772345	0.002550278821946072	0.08897540191644225	-0.01058945307567354	-0.0105894530756701	0.002287783728559453	0.01063649687613386	0.01985837930014523	0.01434311911709008	-0.01782789321474975	0.0636925987475935	0.0009294687207541659	-0.05756055888346776	0.005122022863116187	-0.04854447446746579	0.05253700208278839	-35.7490824105358	21.52247482762532	2.88041798567134	9.743136093088665	-546.4794996303053	-27.87606911228795	-38.860071347001	0.149271425920611	-0.1326280705170576	0.008788010793986759	0.00480393964840971	0.01029302230466442	0.03950677907969066	0.1445733847096628	-0.01873450041132668	-0.01873450041154015	0.01027527542335621	0.01785429651949971	-0.1635259710871224	-0.08312163245489727	5.89734716232333e-11	1.404530166980682e-10	-1.092901420378812e-10	1.747060374492169e-11	9.186341865474293e-12	2.316751115133619e-10	2.932383422870209e-11
1.06	-0.09923831677266971	0.1152836488421738	0.8936655926838672	0.2028412906750213	-0.3222853837881028	-0.4501128056250301	-0.1129074049647213	0.06872982749720256	0.06872982749709652	-0.1695612817083708	-0.07674883710271248	-0.01056097621704926	0.03486734232310439	-0.04027444203742844	0.0204552207096718	-0.001975890104008212	0.01251101015821512	0.002665064667499903	0.002944471691704891	0.0904109842632957	-0.01077592444987971	-0.01077592444987494	0.00238895301842218	0.01081321570588789	0.0182225246338436	0.01351033072852691	-0.01769907321103065	0.06370398075388273	0.0009419639413553226	-0.0575472199060664	0.005032980659597595	-0.04859812268140287	0.05234785869395137	-35.77955900030845	21.55348342548157	2.872763889903517	9.730283795011447	-546.4772403723873	-27.85177575687429	-38.85547411821426	0.1491018610972802	-0.1327521947520716	0.008857479361263234	0.005076090657877992	0.01014480356582134	0.03920056919705555	0.1427005044980802	-0.0187231298413158	-0.01872312984131614	0.009897169500733155	0.01741468786107256	-0.1637561009605586	-0.08348267399121273	4.890955870821338e-11	1.365461482963587e-10	-9.800369686781711e-11	8.327746733889506e-12	-8.24012422615214e-11	1.799575124062494e-10	3.039398342180243e-11
1.07	-0.09963358896955796	0.1154815705706769	0.893646279439927	0.2029666297902435	-0.3222582265615886	-0.4500813994065373	-0.1119962173426851	0.06862113680762638	0.06862113680769036	-0.1695368960115639	-0.07663983392007238	-0.01038692587083845	0.03499827716075655	-0.03877895099667254	0.01912973974943116	-0.001886473212807483	0.01255414373341411	0.002766457257632124	0.003335630503788275	0.09182225955449791	-0.01096343989163119	-0.01096343989163238	0.002487688067682039	0.0109867482888308	0.01658770157196414	0.0126767302608886	-0.0175335610920503	0.0636733277517669	0.0009438799591151171	-0.05761483181763675	0.005061627329085322	-0.04865209046289352	0.05213234594349051	-35.77218832963673	21.58055206241179	2.862827467274862	9.692360550330104	-546.474527684594	-27.83173563121716	-38.85079593849068	0.1499296781975826	-0.1323538331632922	0.009026577609906723	0.003531619428028512	0.01014797948354904	0.03890232783002549	0.139698953057285	-0.0189497250040298	-0.01894972500512376	0.009786943233835282	0.0172216337759978	-0.1633218538986543	-0.08328472582240068	3.84680707579733e-11	1.319631211401403e-10	-8.462934141875686e-11	-2.320534680834173e-12	-1.784140667747699e-10	1.248960807439983e-10	3.121849489290513e-11
1.08	-0.1000138748654769	0.1156662559322746	0.8936278689216239	0.2030923201667785	-0.3222300531106083	-0.4500461158418034	-0.1110710453854363	0.06851053416910656	0.06851053416899816	-0.1695115379103864	-0.07652911559281257	-0.01022921904427251	0.03512087879520209	-0.03727718185063049	0.0178079473286138	-0.001795344976601066	0.01258126244764086	0.002868309557642091	0.003719940940482406	0.09320785131080513	-0.01115831427985643	-0.01115831427986359	0.002583433940770999	0.01115624448225019	0.01495382070621187	0.01184369008636928	-0.01736804897490675	0.06364267474958749	0.0009457959724562104	-0.05768244372940625	0.005090273998316572	-0.0487060582445524	0.05191683319176726	-35.76522230287538	21.60759637771011	2.853003630287258	9.662622491869543	-546.4742678678621	-27.81232677972325	-38.84603632425506	0.1503574821543618	-0.1320144868673	0.009199748362395725	0.001873118463370955	0.01023674554136992	0.03783089411906859	0.1375637975189794	-0.02019491913620259	-0.02019491913620569	0.009299334266471938	0.01660740995629833	-0.1635676617350662	-0.08337061536738974	5.670857202717875e-11	1.179764735052829e-10	-7.294959587821834e-11	-4.239270158472061e-12	-4.951985437472523e-11	1.500160767745699e-10	2.947780933920112e-11
